<?xml version="1.0" encoding="utf-8"?>
<!-- Generator: Adobe Illustrator 25.0.1, SVG Export Plug-In . SVG Version: 6.00 Build 0)  -->
<svg version="1.1" id="Layer_1" xmlns="http://www.w3.org/2000/svg" xmlns:xlink="http://www.w3.org/1999/xlink" x="0px" y="0px"
	 viewBox="0 0 220 65" style="enable-background:new 0 0 220 65;" xml:space="preserve">
<style type="text/css">
	.st0{clip-path:url(#SVGID_2_);fill:url(#SVGID_3_);}
	.st1{clip-path:url(#SVGID_5_);fill:url(#SVGID_6_);}
	.st2{clip-path:url(#SVGID_8_);fill:url(#SVGID_9_);}
	.st3{opacity:0.4;fill-rule:evenodd;clip-rule:evenodd;fill:#052D40;}
	.st4{clip-path:url(#SVGID_11_);fill:url(#SVGID_12_);}
	.st5{fill:#004B6C;}
	.st6{fill:#143B69;}
</style>
<g>
	<g>
		<defs>
			<path id="SVGID_1_" d="M52.3,38.9L52.3,38.9L28.9,52.4c-5.9,3.4-9,0-9-6.2v-27c0-6.9,4.5-7.8,9.9-4.7L53.1,28
				C59.1,31.4,57.7,35.8,52.3,38.9z M66.3,24.7L32,5c-7.9-4.5-14.5-3.1-14.5,6.9v39.5c0,9.1,4.5,14.1,13.2,9.1L65,40.7
				C72.9,36.2,75,29.8,66.3,24.7z"/>
		</defs>
		<clipPath id="SVGID_2_">
			<use xlink:href="#SVGID_1_"  style="overflow:visible;"/>
		</clipPath>
		
			<linearGradient id="SVGID_3_" gradientUnits="userSpaceOnUse" x1="-185.3381" y1="453.4817" x2="-184.6405" y2="453.4817" gradientTransform="matrix(113.9359 65.781 -67.2811 116.5341 51630.3164 -40646.4102)">
			<stop  offset="0" style="stop-color:#DCE34B"/>
			<stop  offset="0.34" style="stop-color:#58C8DF"/>
			<stop  offset="0.66" style="stop-color:#09BCBE"/>
			<stop  offset="1" style="stop-color:#004767"/>
		</linearGradient>
		<polygon class="st0" points="-10.6,49.3 60.6,90.4 103.2,16.7 31.9,-24.4 		"/>
	</g>
	<g>
		<defs>
			<path id="SVGID_4_" d="M66.3,24.7l-27-15.6c-9-5.2-19.9-4.3-19.4,9.2c0.1-3.3,1.6-4.8,3.6-5.2c0.9-0.2,1.9-0.1,2.8,0
				c9.7,1.2,28.3,10.4,36.9,16C69.1,33,70,36.8,65,40.7C72.9,36.2,75,29.8,66.3,24.7z"/>
		</defs>
		<clipPath id="SVGID_5_">
			<use xlink:href="#SVGID_4_"  style="overflow:visible;"/>
		</clipPath>
		
			<linearGradient id="SVGID_6_" gradientUnits="userSpaceOnUse" x1="-185.0717" y1="453.499" x2="-184.238" y2="453.499" gradientTransform="matrix(93.3689 53.9067 -51.6659 89.4878 40718.0234 -30606.4961)">
			<stop  offset="0" style="stop-color:#AAD049"/>
			<stop  offset="2.000000e-02" style="stop-color:#AAD049"/>
			<stop  offset="0.33" style="stop-color:#58C8DF"/>
			<stop  offset="0.66" style="stop-color:#09BCBE"/>
			<stop  offset="1" style="stop-color:#004767"/>
		</linearGradient>
		<polygon class="st1" points="3.5,31.5 61.1,64.8 90.9,13.1 33.3,-20.1 		"/>
	</g>
	<g>
		<defs>
			<path id="SVGID_7_" d="M64.2,29c-10.1-6.9-35-18.5-41.4-15.7c2.2-0.9,5.1,0,7,1.2L53.1,28c0.6,0.4,1.1,0.7,1.6,1.1
				c5.9,3.9,4.1,13.7-0.2,17.8L65,40.7C71.9,36.8,68.2,31.8,64.2,29z"/>
		</defs>
		<clipPath id="SVGID_8_">
			<use xlink:href="#SVGID_7_"  style="overflow:visible;"/>
		</clipPath>
		
			<linearGradient id="SVGID_9_" gradientUnits="userSpaceOnUse" x1="-184.817" y1="452.4639" x2="-184.1705" y2="452.4639" gradientTransform="matrix(44.559 77.1783 -80.7597 46.6267 44810.875 -6826.0938)">
			<stop  offset="0" style="stop-color:#75C153"/>
			<stop  offset="0.31" style="stop-color:#58C8DF"/>
			<stop  offset="0.66" style="stop-color:#09BCBE"/>
			<stop  offset="1" style="stop-color:#004767"/>
		</linearGradient>
		<polygon class="st2" points="7,19.6 35,68.1 87.6,37.8 59.6,-10.7 		"/>
	</g>
	<polygon class="st3" points="40.5,45.7 42.2,53.9 51.4,48.6 49.7,40.4 	"/>
	<path class="st3" d="M41.5,10.4H17.6c0,0.5-0.1,1-0.1,1.5v8.7h2.3v-1.4c0-6.9,4.5-7.8,9.9-4.7l10.7,6.2h4.9c0.5,0,1.6,0.1,1.9,0.5
		c0.2,0.3,0.1,1,0.1,1.4l-0.4,1.8l6.3,3.6c1.1,0.6,1.9,1.3,2.5,2c0.7-1.4,1.2-3,1.6-4.7l0.5-2.1C58,22,58.1,21,58,20L41.5,10.4z"/>
	<g>
		<defs>
			<path id="SVGID_10_" d="M44.3,56.6h7.3l-4.4-21.4c5.3-1.4,7.6-5.2,8.7-10.3l0.5-2.1c1.4-6.6-3-10.9-9.4-10.9h-37v7.3h35.4
				c2.8,0,3.9,1.2,3.4,3.7L48.2,25c-0.5,2.3-2.1,3.4-4.9,3.4h-9.2l1.6-8.1h-7.3l-5.9,30.5h7.3l2.9-15H40L44.3,56.6z"/>
		</defs>
		<clipPath id="SVGID_11_">
			<use xlink:href="#SVGID_10_"  style="overflow:visible;"/>
		</clipPath>
		
			<linearGradient id="SVGID_12_" gradientUnits="userSpaceOnUse" x1="-188.8097" y1="453.2302" x2="-188.0611" y2="453.2302" gradientTransform="matrix(-89.2501 -51.5287 51.384 -88.9995 -40071.1562 30662.6523)">
			<stop  offset="0" style="stop-color:#58C8DF"/>
			<stop  offset="0.54" style="stop-color:#09BCBE"/>
			<stop  offset="1" style="stop-color:#004767"/>
		</linearGradient>
		<polygon class="st4" points="77.1,23.1 21.9,-8.8 -9.4,45.4 45.8,77.3 		"/>
	</g>
	<path class="st5" d="M192.6,45.9h-6.9V18.6h1.7l2.3,2.7c0.6-0.5,1.2-1,1.8-1.4c0.6-0.4,1.3-0.7,2-1c0.7-0.3,1.4-0.5,2.2-0.6
		c0.7-0.1,1.5-0.2,2.3-0.2c0.8,0,1.6,0.1,2.4,0.2c0.8,0.2,1.6,0.4,2.3,0.7c0.7,0.3,1.4,0.7,2.1,1.1c0.6,0.4,1.2,0.9,1.8,1.5
		c0.5,0.6,1,1.2,1.5,1.8c0.4,0.7,0.8,1.3,1.1,2.1c0.3,0.8,0.5,1.5,0.7,2.3c0.2,0.8,0.2,1.6,0.2,2.4v15.6h-6.9V30.3
		c0-0.4,0-0.7-0.1-1.1c-0.1-0.3-0.2-0.7-0.3-1c-0.1-0.3-0.3-0.6-0.5-0.9c-0.2-0.3-0.4-0.5-0.6-0.8c-0.3-0.2-0.5-0.4-0.8-0.6
		c-0.3-0.2-0.6-0.3-0.9-0.5c-0.3-0.1-0.6-0.2-1-0.3c-0.3-0.1-0.7-0.1-1.1-0.1c-0.4,0-0.7,0-1.1,0.1c-0.3,0.1-0.7,0.2-1,0.3
		c-0.3,0.1-0.6,0.3-0.9,0.5c-0.3,0.2-0.5,0.4-0.8,0.6c-0.2,0.2-0.4,0.5-0.6,0.8c-0.2,0.3-0.3,0.6-0.5,0.9c-0.1,0.3-0.2,0.6-0.3,1
		c-0.1,0.3-0.1,0.7-0.1,1.1V45.9z M172.6,24.9c-0.2-0.1-0.3-0.1-0.5-0.1c-0.2,0-0.3-0.1-0.5-0.1c-0.2,0-0.3,0-0.5,0
		c-0.2,0-0.3,0-0.5,0c-0.5,0-0.9,0-1.4,0.1c-0.4,0.1-0.9,0.2-1.3,0.4c-0.4,0.2-0.8,0.4-1.2,0.6c-0.4,0.3-0.7,0.5-1,0.9
		c-0.3,0.3-0.6,0.7-0.8,1.1c-0.3,0.4-0.5,0.8-0.6,1.3c-0.2,0.4-0.3,0.9-0.4,1.4c-0.1,0.5-0.1,1.1-0.1,1.6c0,0.1,0,0.3,0,0.4
		c0,0.1,0,0.3,0,0.4c0,0.2,0,0.4,0.1,0.5c0,0.2,0,0.3,0.1,0.5c0.1,0.2,0.1,0.4,0.1,0.5c0,0.2,0.1,0.3,0.1,0.5c0,0.1,0.1,0.3,0.1,0.4
		c0.1,0.1,0.1,0.3,0.2,0.4L172.6,24.9z M169.1,39.3c0.3,0.1,0.5,0.2,0.8,0.2c0.2,0,0.3,0,0.4,0c0.1,0,0.3,0,0.4,0c0.3,0,0.7,0,1-0.1
		c0.3-0.1,0.7-0.1,1-0.2c0.3-0.1,0.6-0.2,0.9-0.4c0.3-0.1,0.6-0.3,0.9-0.5c0.3-0.2,0.5-0.4,0.8-0.6c0.2-0.2,0.5-0.4,0.7-0.7
		c0.2-0.3,0.4-0.5,0.6-0.8c0.2-0.3,0.3-0.6,0.5-0.9l5.1,5.1c-0.3,0.4-0.7,0.9-1,1.3c-0.4,0.4-0.8,0.8-1.2,1.2
		c-0.4,0.4-0.9,0.7-1.3,1c-0.5,0.3-0.9,0.6-1.4,0.9c-0.5,0.3-1,0.5-1.5,0.7c-0.5,0.2-1,0.3-1.6,0.5c-0.5,0.1-1.1,0.2-1.7,0.3
		c-0.5,0.1-1.1,0.1-1.7,0.1c-1,0-1.9-0.1-2.8-0.3c-0.9-0.2-1.8-0.5-2.6-0.8c-0.8-0.3-1.6-0.8-2.4-1.3c-0.7-0.5-1.4-1.1-2.1-1.7
		c-1.3-1.3-2.2-2.8-3-4.5c-0.7-1.8-1.1-3.7-1.1-5.8c0-1.1,0.1-2.1,0.3-3.1c0.2-1,0.5-1.9,0.8-2.8c0.4-0.9,0.8-1.7,1.3-2.5
		c0.5-0.8,1.1-1.5,1.7-2.1c0.7-0.6,1.3-1.2,2.1-1.7c0.7-0.5,1.5-0.9,2.4-1.2c0.9-0.3,1.7-0.6,2.6-0.8c0.9-0.2,1.8-0.3,2.8-0.3
		c0.6,0,1.1,0,1.7,0.1c0.6,0.1,1.1,0.2,1.7,0.3c0.5,0.1,1.1,0.3,1.6,0.5c0.5,0.2,1,0.4,1.5,0.7c0.5,0.3,1,0.5,1.4,0.9
		c0.5,0.3,0.9,0.7,1.3,1c0.4,0.4,0.8,0.8,1.2,1.2c0.4,0.4,0.7,0.9,1,1.3L169.1,39.3z M147.3,32c0-0.5,0-1-0.1-1.5
		c-0.1-0.5-0.2-1-0.4-1.4c-0.2-0.4-0.4-0.9-0.7-1.3c-0.3-0.4-0.5-0.8-0.9-1.1c-0.6-0.6-1.4-1.1-2.2-1.6c-0.4-0.2-0.9-0.3-1.3-0.4
		c-0.5-0.1-0.9-0.1-1.4-0.1c-0.9,0-1.8,0.2-2.7,0.6c-0.4,0.2-0.8,0.4-1.2,0.7c-0.4,0.3-0.7,0.6-1.1,0.9c-0.3,0.4-0.6,0.7-0.8,1.1
		c-0.2,0.4-0.5,0.8-0.6,1.3c-0.2,0.4-0.3,0.9-0.4,1.4c-0.1,0.5-0.1,0.9-0.1,1.4c0,0.5,0,1,0.1,1.5c0.1,0.5,0.2,1,0.4,1.4
		c0.2,0.4,0.4,0.9,0.6,1.3c0.2,0.4,0.5,0.8,0.8,1.1c0.3,0.3,0.7,0.6,1.1,0.9c0.4,0.3,0.8,0.5,1.2,0.7c0.4,0.2,0.9,0.3,1.3,0.4
		c0.4,0.1,0.9,0.1,1.4,0.1c0.5,0,0.9-0.1,1.4-0.1c0.5-0.1,0.9-0.2,1.3-0.4c0.8-0.4,1.6-0.9,2.2-1.6c0.3-0.3,0.6-0.7,0.9-1.1
		c0.3-0.4,0.5-0.8,0.7-1.3c0.2-0.4,0.3-0.9,0.4-1.4C147.3,33.1,147.3,32.6,147.3,32z M154.3,32c0,1.1-0.1,2.1-0.3,3.1
		c-0.2,1-0.5,1.9-0.8,2.8c-0.7,1.8-1.7,3.3-3,4.5c-0.6,0.7-1.3,1.2-2,1.7c-0.7,0.5-1.5,0.9-2.4,1.3c-0.8,0.3-1.7,0.6-2.6,0.8
		c-0.9,0.2-1.8,0.3-2.8,0.3c-1,0-1.9-0.1-2.8-0.3c-0.9-0.2-1.8-0.5-2.6-0.8c-0.8-0.3-1.6-0.8-2.4-1.3c-0.7-0.5-1.4-1.1-2.1-1.7
		c-1.3-1.3-2.2-2.8-3-4.5c-0.7-1.8-1.1-3.7-1.1-5.8V7.8h7v12.7c0.2-0.2,0.4-0.5,0.6-0.7c0.2-0.2,0.5-0.4,0.7-0.6
		c0.5-0.4,1.1-0.7,1.7-0.9c0.3-0.1,0.6-0.2,0.9-0.3c0.3-0.1,0.6-0.2,1-0.2c0.3-0.1,0.7-0.1,1-0.2c0.3,0,0.6,0,0.9,0
		c1,0,1.9,0.1,2.8,0.3c0.9,0.2,1.8,0.5,2.6,0.8c0.9,0.4,1.7,0.8,2.4,1.3c0.7,0.5,1.4,1.1,2,1.7c0.6,0.6,1.2,1.3,1.7,2.1
		c0.5,0.8,0.9,1.6,1.3,2.4C154,28,154.3,30,154.3,32z M116.2,32c0-0.6-0.1-1.1-0.1-1.6c-0.1-0.5-0.2-1-0.4-1.5
		c-0.2-0.4-0.4-0.9-0.6-1.2c-0.2-0.4-0.5-0.7-0.8-1.1c-0.3-0.3-0.7-0.6-1-0.9c-0.4-0.3-0.8-0.5-1.2-0.6c-0.4-0.2-0.9-0.3-1.3-0.4
		c-0.5-0.1-0.9-0.1-1.4-0.1c-0.5,0-0.9,0-1.4,0.1c-0.4,0.1-0.9,0.2-1.3,0.4c-0.4,0.2-0.8,0.4-1.2,0.6c-0.4,0.3-0.7,0.6-1,0.9
		c-0.3,0.3-0.6,0.7-0.8,1.1c-0.3,0.4-0.5,0.8-0.6,1.2c-0.2,0.5-0.3,1-0.4,1.5c-0.1,0.5-0.1,1-0.1,1.6c0,0.5,0.1,1,0.1,1.5
		c0.1,0.5,0.2,1,0.4,1.4c0.2,0.4,0.4,0.9,0.6,1.3c0.2,0.4,0.5,0.8,0.8,1.1c0.6,0.7,1.4,1.2,2.2,1.6c0.4,0.2,0.9,0.3,1.3,0.4
		c0.4,0.1,0.9,0.1,1.4,0.1c0.5,0,0.9-0.1,1.4-0.1c0.5-0.1,0.9-0.2,1.3-0.4c0.4-0.2,0.8-0.4,1.2-0.7c0.4-0.3,0.7-0.5,1-0.9
		c0.3-0.3,0.6-0.7,0.8-1.1c0.2-0.4,0.5-0.8,0.6-1.3c0.2-0.5,0.3-1,0.4-1.5C116.1,33.1,116.2,32.6,116.2,32z M123.2,32
		c0,1-0.1,2-0.3,2.9c-0.2,0.9-0.5,1.9-0.8,2.8c-0.7,1.8-1.7,3.3-3,4.5c-0.6,0.7-1.3,1.2-2,1.7c-0.7,0.5-1.5,0.9-2.4,1.3
		c-0.8,0.4-1.7,0.7-2.6,0.9c-0.9,0.2-1.8,0.3-2.8,0.3c-1,0-1.9-0.1-2.8-0.3c-0.9-0.2-1.8-0.5-2.6-0.9c-0.8-0.4-1.6-0.8-2.4-1.3
		c-0.7-0.5-1.4-1.1-2.1-1.7c-1.3-1.3-2.2-2.8-3-4.5c-0.4-0.9-0.6-1.8-0.8-2.8c-0.2-0.9-0.3-1.9-0.3-2.9c0-2.1,0.4-4,1.1-5.8
		c0.4-0.9,0.8-1.7,1.3-2.4c0.5-0.8,1.1-1.5,1.7-2.1c0.7-0.7,1.3-1.2,2.1-1.7c0.7-0.5,1.5-0.9,2.4-1.3c0.9-0.4,1.7-0.6,2.6-0.8
		c0.9-0.2,1.8-0.3,2.8-0.3c1,0,1.9,0.1,2.8,0.3c0.9,0.2,1.8,0.4,2.6,0.8c0.9,0.3,1.7,0.8,2.4,1.2c0.7,0.5,1.4,1.1,2,1.7
		c1.3,1.3,2.2,2.8,3,4.5C122.8,27.9,123.2,29.9,123.2,32z M82.1,45.9h-6.9V18.6h1.7l2.3,3.2c0.6-0.5,1.2-1,1.8-1.4
		c0.6-0.4,1.3-0.7,2-1c0.7-0.3,1.5-0.5,2.2-0.6c0.7-0.1,1.5-0.2,2.2-0.2h6.2v6.9h-6.2c-0.4,0-0.7,0-1.1,0.1c-0.3,0.1-0.7,0.2-1,0.3
		c-0.3,0.1-0.6,0.3-0.9,0.5c-0.3,0.2-0.5,0.4-0.8,0.6c-0.2,0.2-0.4,0.5-0.6,0.8c-0.2,0.3-0.3,0.6-0.5,0.9c-0.1,0.3-0.2,0.7-0.3,1
		c-0.1,0.3-0.1,0.7-0.1,1.1V45.9z"/>
	<path class="st6" d="M75.5,48.9c0.3,0,0.6,0,0.8,0c0.2,0,0.4,0,0.5,0c0.4,0,0.8,0.1,1,0.2c0.1,0,0.1,0.1,0.2,0.1
		c0.1,0,0.1,0.1,0.2,0.2c0,0.1,0.1,0.1,0.1,0.2c0,0.1,0,0.1,0.1,0.2c0,0.1,0,0.1,0,0.2c0,0.1,0,0.1,0,0.2H77V50c0,0,0-0.1,0-0.1
		c0,0,0-0.1,0-0.1c0,0,0,0,0-0.1c0,0,0,0-0.1-0.1c-0.1,0-0.2-0.1-0.3-0.1c-0.1,0-0.3,0-0.5,0h-0.5c-0.3,0-0.5,0-0.6,0
		c-0.2,0-0.3,0-0.4,0.1c0,0-0.1,0-0.1,0.1c0,0-0.1,0.1-0.1,0.1c0,0,0,0.1,0,0.1c0,0,0,0.1,0,0.2c0,0,0,0,0,0c0,0,0,0,0,0
		c0,0,0,0,0,0.1c0,0,0,0,0,0.1c0,0,0,0,0,0.1c0,0,0,0,0,0.1c0,0,0,0,0.1,0.1c0,0,0.1,0,0.1,0c0,0,0,0,0.1,0c0,0,0,0,0,0
		c0,0,0,0,0.1,0c0,0,0.1,0,0.1,0l0.3,0l0.4,0l0.4,0l0.9,0c0.1,0,0.3,0,0.4,0c0.1,0,0.2,0,0.4,0c0.1,0,0.2,0,0.3,0.1
		c0.1,0,0.2,0.1,0.2,0.1c0.1,0.1,0.2,0.1,0.3,0.2c0.1,0.1,0.1,0.1,0.1,0.2c0,0,0,0.1,0,0.1c0,0,0,0.1,0,0.2c0,0.1,0,0.1,0,0.2
		c0,0.1,0,0.1,0,0.2c0,0.1,0,0.2,0,0.3c0,0.1-0.1,0.2-0.1,0.3c-0.1,0.1-0.1,0.2-0.2,0.2C78,52.9,77.9,53,77.8,53
		c-0.1,0-0.1,0.1-0.2,0.1c-0.1,0-0.2,0-0.3,0.1c-0.1,0-0.2,0-0.2,0c-0.1,0-0.1,0-0.2,0c0,0-0.1,0-0.1,0c0,0-0.1,0-0.1,0
		c0,0-0.1,0-0.1,0c-0.1,0-0.1,0-0.2,0c-0.1,0-0.2,0-0.2,0c-0.1,0-0.1,0-0.2,0h-0.5c-0.1,0-0.1,0-0.2,0c-0.1,0-0.2,0-0.3,0
		c-0.1,0-0.2,0-0.2,0c-0.1,0-0.1,0-0.1,0c-0.1,0-0.1,0-0.2,0c-0.1,0-0.1,0-0.2,0c-0.1,0-0.1,0-0.2,0c-0.1,0-0.1,0-0.2,0
		c-0.1,0-0.2,0-0.3-0.1c-0.1,0-0.2-0.1-0.3-0.1c-0.1,0-0.1-0.1-0.2-0.1c-0.1,0-0.1-0.1-0.2-0.2c0-0.1-0.1-0.1-0.1-0.2
		c0-0.1,0-0.1,0-0.2c0,0,0-0.1,0-0.1c0,0,0-0.1,0-0.1c0-0.1,0-0.1,0-0.1c0,0,0-0.1,0-0.1h1.3c0,0,0,0,0,0c0,0,0,0,0,0c0,0,0,0,0,0
		c0,0,0,0,0,0c0,0,0,0.1,0,0.1c0,0,0,0.1,0,0.1c0,0,0,0,0,0.1c0,0,0,0.1,0,0.1c0,0,0,0.1,0.1,0.1c0,0,0.1,0.1,0.1,0.1
		c0,0,0.1,0,0.2,0.1c0.1,0,0.1,0,0.2,0c0.1,0,0.1,0,0.2,0c0,0,0.1,0,0.1,0c0,0,0.1,0,0.2,0c0.1,0,0.1,0,0.2,0c0.1,0,0.1,0,0.2,0
		c0,0,0.1,0,0.1,0c0.1,0,0.2,0,0.2,0c0.1,0,0.1,0,0.2,0c0.1,0,0.2,0,0.3,0c0.2,0,0.3,0,0.4-0.1c0.1,0,0.1-0.1,0.2-0.1
		c0,0,0.1-0.1,0.1-0.1c0,0,0-0.1,0-0.2c0-0.1,0-0.1,0-0.2c0,0,0-0.1,0-0.1c0,0,0-0.1,0-0.1c0,0,0-0.1-0.1-0.1c0,0-0.1-0.1-0.1-0.1
		c0,0-0.1,0-0.1,0c0,0-0.1,0-0.1,0c0,0-0.1,0-0.1,0c0,0-0.1,0-0.1,0l-0.3,0l-0.4,0l-0.6,0c-0.1,0-0.1,0-0.2,0c-0.1,0-0.1,0-0.2,0
		c0,0-0.1,0-0.2,0c-0.1,0-0.1,0-0.2,0c-0.1,0-0.2,0-0.3,0c-0.1,0-0.2,0-0.3,0c-0.1,0-0.2,0-0.3-0.1c-0.1,0-0.2-0.1-0.2-0.1
		c-0.1,0-0.2-0.1-0.2-0.2c-0.1-0.1-0.1-0.1-0.2-0.2c0-0.1-0.1-0.2-0.1-0.3c0,0,0-0.1,0-0.1c0,0,0-0.1,0-0.1c0-0.2,0-0.4,0.1-0.6
		c0.1-0.2,0.2-0.3,0.4-0.4c0.2-0.1,0.4-0.2,0.8-0.2C74.5,48.9,75,48.9,75.5,48.9"/>
	<path class="st6" d="M83.7,52.5C83.7,52.5,83.7,52.5,83.7,52.5c0.1,0,0.1,0,0.1,0c0,0,0,0,0.1,0c0,0,0,0,0.1,0c0.2,0,0.3,0,0.5,0
		c0.1,0,0.2,0,0.2,0c0.1,0,0.1,0,0.2,0c0.1,0,0.1,0,0.1,0c0,0,0.1,0,0.1-0.1c0.1,0,0.1-0.1,0.1-0.1c0,0,0.1-0.1,0.1-0.1
		c0,0,0-0.1,0-0.1c0-0.1,0-0.1,0-0.2v-3h1.3V52c0,0.2-0.1,0.4-0.2,0.6c-0.1,0.2-0.3,0.3-0.5,0.4c-0.1,0.1-0.3,0.1-0.4,0.1
		c-0.2,0-0.4,0.1-0.6,0.1c-0.1,0-0.2,0-0.3,0c-0.1,0-0.2,0-0.3,0c-0.1,0-0.2,0-0.4,0c-0.1,0-0.3,0-0.4,0h-0.1h-0.1h-0.1h-0.1h-0.1
		c0,0-0.1,0-0.1,0c0,0-0.1,0-0.1,0c0,0-0.1,0-0.1,0c0,0-0.1,0-0.1,0c0,0-0.1,0-0.1,0c0,0-0.1,0-0.1,0c0,0-0.1,0-0.1,0
		c-0.1,0-0.1,0-0.2,0c-0.1,0-0.2,0-0.3-0.1c-0.1,0-0.2,0-0.3-0.1c-0.1,0-0.2-0.1-0.3-0.2c-0.1-0.1-0.2-0.2-0.2-0.2
		c-0.1-0.1-0.1-0.2-0.1-0.3c0-0.1,0-0.2,0-0.3v-3.1h1.3V52c0,0.1,0,0.1,0,0.1c0,0,0,0.1,0,0.1c0,0,0,0.1,0.1,0.1c0,0,0.1,0,0.1,0.1
		c0.1,0,0.1,0.1,0.2,0.1c0,0,0,0,0,0c0,0,0,0,0,0c0,0,0,0,0.1,0c0,0,0.1,0,0.1,0l0.3,0H83.7z"/>
	<path class="st6" d="M94.3,48.9h2l2.4,4.3h-1.4l-0.4-0.8h-3l-0.4,0.8H92l1.6-3L94.3,48.9z M94.1,51.8h2.4l-1.2-2.2L94.1,51.8z"/>
	<path class="st6" d="M104.1,48.9c0.4,0,0.8,0,1.1,0.1c0.3,0.1,0.5,0.1,0.7,0.2c0.1,0.1,0.2,0.2,0.3,0.4c0.1,0.2,0.1,0.4,0.1,0.6
		c0,0.2,0,0.4-0.1,0.6c0,0.1,0,0.2-0.1,0.2c0,0.1-0.1,0.1-0.2,0.2c-0.1,0.1-0.2,0.1-0.4,0.2c-0.2,0-0.3,0.1-0.6,0.1v0
		c0.2,0,0.4,0,0.5,0.1c0.2,0,0.3,0.1,0.4,0.2c0,0,0.1,0.1,0.1,0.1c0,0.1,0.1,0.1,0.1,0.2c0,0,0,0.1,0,0.1c0,0,0,0.1,0,0.1
		c0,0,0,0.1,0,0.1c0,0,0,0.1,0,0.1v0.8h-1.3v-0.6c0-0.2,0-0.3,0-0.4c0,0,0-0.1-0.1-0.1c0,0-0.1-0.1-0.1-0.1c0,0-0.1-0.1-0.2-0.1
		c-0.1,0-0.1,0-0.2-0.1c0,0-0.1,0-0.1,0c0,0-0.1,0-0.1,0c0,0-0.1,0-0.1,0c-0.1,0-0.1,0-0.2,0h-0.1H102v1.4h-1.3v-4.3H104.1z
		 M103.9,49.6H102v1.5h1.9c0.2,0,0.4,0,0.5,0c0.1,0,0.1,0,0.2-0.1c0.1,0,0.1,0,0.2-0.1c0,0,0.1-0.1,0.1-0.1c0,0,0-0.1,0.1-0.1
		c0-0.1,0-0.1,0-0.2c0-0.1,0-0.1,0-0.2c0-0.1,0-0.1,0-0.2c0-0.1,0-0.1,0-0.1c0,0,0-0.1,0-0.1c0,0,0-0.1-0.1-0.1c0,0-0.1-0.1-0.1-0.1
		c-0.1,0-0.1,0-0.2,0c0,0-0.1,0-0.1,0c0,0-0.1,0-0.1,0c-0.1,0-0.1,0-0.2,0C104,49.6,103.9,49.6,103.9,49.6z"/>
	<rect x="108.9" y="48.9" class="st6" width="1.3" height="4.3"/>
	<polygon class="st6" points="114.4,53.2 114.4,49.6 112.3,49.6 112.3,48.9 117.7,48.9 117.7,49.6 115.7,49.6 115.7,53.2 	"/>
	<polygon class="st6" points="119.9,53.2 119.9,48.9 122,48.9 123.9,52.1 123.9,52.1 125.8,48.9 128,48.9 128,53.2 126.6,53.2 
		126.8,49.6 126.7,49.6 124.5,53.2 123.3,53.2 121.1,49.6 121.1,49.6 121.2,51.2 121.2,53.2 	"/>
	<path class="st6" d="M132.4,48.9h2l2.4,4.3h-1.4l-0.4-0.8h-3l-0.4,0.8h-1.4l1.6-3L132.4,48.9z M132.2,51.8h2.4l-1.2-2.2L132.2,51.8
		z"/>
	<path class="st6" d="M144.4,48.9c0.3,0,0.6,0,0.8,0c0.2,0,0.4,0,0.5,0c0.4,0,0.8,0.1,1,0.2c0.1,0,0.1,0.1,0.2,0.1
		c0.1,0,0.1,0.1,0.2,0.2c0,0.1,0.1,0.1,0.1,0.2c0,0.1,0,0.1,0.1,0.2c0,0.1,0,0.1,0,0.2c0,0.1,0,0.1,0,0.2h-1.3V50c0,0,0-0.1,0-0.1
		c0,0,0-0.1,0-0.1c0,0,0,0,0-0.1c0,0,0,0-0.1-0.1c-0.1,0-0.2-0.1-0.3-0.1c-0.1,0-0.3,0-0.5,0h-0.5c-0.3,0-0.5,0-0.6,0
		c-0.2,0-0.3,0-0.4,0.1c0,0-0.1,0-0.1,0.1c0,0-0.1,0.1-0.1,0.1c0,0,0,0.1,0,0.1c0,0,0,0.1,0,0.2c0,0,0,0,0,0c0,0,0,0,0,0
		c0,0,0,0,0,0.1c0,0,0,0,0,0.1c0,0,0,0,0,0.1c0,0,0,0,0,0.1c0,0,0,0,0.1,0.1c0,0,0.1,0,0.1,0c0,0,0,0,0.1,0c0,0,0,0,0,0
		c0,0,0,0,0.1,0c0,0,0.1,0,0.1,0l0.3,0l0.4,0l0.4,0l0.9,0c0.1,0,0.3,0,0.4,0c0.1,0,0.2,0,0.4,0c0.1,0,0.2,0,0.3,0.1
		c0.1,0,0.2,0.1,0.2,0.1c0.1,0.1,0.2,0.1,0.3,0.2c0.1,0.1,0.1,0.1,0.1,0.2c0,0,0,0.1,0,0.1c0,0,0,0.1,0,0.2c0,0.1,0,0.1,0,0.2
		c0,0.1,0,0.1,0,0.2c0,0.1,0,0.2,0,0.3c0,0.1-0.1,0.2-0.1,0.3c-0.1,0.1-0.1,0.2-0.2,0.2c-0.1,0.1-0.2,0.1-0.3,0.2
		c-0.1,0-0.1,0.1-0.2,0.1c-0.1,0-0.2,0-0.3,0.1c-0.1,0-0.2,0-0.2,0c-0.1,0-0.1,0-0.2,0c0,0-0.1,0-0.1,0c0,0-0.1,0-0.1,0
		c0,0-0.1,0-0.1,0c-0.1,0-0.1,0-0.2,0c-0.1,0-0.2,0-0.2,0c-0.1,0-0.1,0-0.2,0h-0.5c-0.1,0-0.1,0-0.2,0c-0.1,0-0.2,0-0.3,0
		c-0.1,0-0.2,0-0.2,0c-0.1,0-0.1,0-0.1,0c-0.1,0-0.1,0-0.2,0c-0.1,0-0.1,0-0.2,0c-0.1,0-0.1,0-0.2,0c-0.1,0-0.1,0-0.2,0
		c-0.1,0-0.2,0-0.3-0.1c-0.1,0-0.2-0.1-0.3-0.1c-0.1,0-0.1-0.1-0.2-0.1c-0.1,0-0.1-0.1-0.2-0.2c0-0.1-0.1-0.1-0.1-0.2
		c0-0.1,0-0.1,0-0.2c0,0,0-0.1,0-0.1c0,0,0-0.1,0-0.1c0-0.1,0-0.1,0-0.1c0,0,0-0.1,0-0.1h1.3c0,0,0,0,0,0c0,0,0,0,0,0c0,0,0,0,0,0
		c0,0,0,0,0,0c0,0,0,0.1,0,0.1c0,0,0,0.1,0,0.1c0,0,0,0,0,0.1c0,0,0,0.1,0,0.1c0,0,0,0.1,0.1,0.1c0,0,0.1,0.1,0.1,0.1
		c0,0,0.1,0,0.2,0.1c0.1,0,0.1,0,0.2,0c0.1,0,0.1,0,0.2,0c0,0,0.1,0,0.1,0c0,0,0.1,0,0.2,0c0.1,0,0.1,0,0.2,0c0.1,0,0.1,0,0.2,0
		c0,0,0.1,0,0.1,0c0.1,0,0.2,0,0.2,0c0.1,0,0.1,0,0.2,0c0.1,0,0.2,0,0.3,0c0.2,0,0.3,0,0.4-0.1c0.1,0,0.1-0.1,0.2-0.1
		c0,0,0.1-0.1,0.1-0.1c0,0,0-0.1,0-0.2c0-0.1,0-0.1,0-0.2c0,0,0-0.1,0-0.1c0,0,0-0.1,0-0.1c0,0,0-0.1-0.1-0.1c0,0-0.1-0.1-0.1-0.1
		c0,0-0.1,0-0.1,0c0,0-0.1,0-0.1,0c0,0-0.1,0-0.1,0c0,0-0.1,0-0.1,0l-0.3,0l-0.4,0l-0.6,0c-0.1,0-0.1,0-0.2,0c-0.1,0-0.1,0-0.2,0
		c0,0-0.1,0-0.2,0c-0.1,0-0.1,0-0.2,0c-0.1,0-0.2,0-0.3,0c-0.1,0-0.2,0-0.3,0c-0.1,0-0.2,0-0.3-0.1c-0.1,0-0.2-0.1-0.2-0.1
		c-0.1,0-0.2-0.1-0.2-0.2c-0.1-0.1-0.1-0.1-0.2-0.2c0-0.1-0.1-0.2-0.1-0.3c0,0,0-0.1,0-0.1c0,0,0-0.1,0-0.1c0-0.2,0-0.4,0.1-0.6
		c0.1-0.2,0.2-0.3,0.4-0.4c0.2-0.1,0.4-0.2,0.8-0.2C143.4,48.9,143.9,48.9,144.4,48.9"/>
	<path class="st6" d="M150,47.9h0.9v0.5H150V47.9z M149.8,48.9h1.3v4.3h-1.3V48.9z"/>
	<path class="st6" d="M156.2,48.9c0.3,0,0.6,0,0.8,0c0.2,0,0.4,0,0.5,0c0.4,0,0.8,0.1,1,0.2c0.1,0,0.1,0.1,0.2,0.1
		c0.1,0,0.1,0.1,0.2,0.2c0,0.1,0.1,0.1,0.1,0.2c0,0.1,0,0.1,0.1,0.2c0,0.1,0,0.1,0,0.2c0,0.1,0,0.1,0,0.2h-1.3V50c0,0,0-0.1,0-0.1
		c0,0,0-0.1,0-0.1c0,0,0,0,0-0.1c0,0,0,0-0.1-0.1c-0.1,0-0.2-0.1-0.3-0.1c-0.1,0-0.3,0-0.5,0h-0.5c-0.3,0-0.5,0-0.6,0
		c-0.2,0-0.3,0-0.4,0.1c0,0-0.1,0-0.1,0.1c0,0-0.1,0.1-0.1,0.1c0,0,0,0.1,0,0.1c0,0,0,0.1,0,0.2c0,0,0,0,0,0c0,0,0,0,0,0
		c0,0,0,0,0,0.1c0,0,0,0,0,0.1c0,0,0,0,0,0.1c0,0,0,0,0,0.1c0,0,0,0,0.1,0.1c0,0,0.1,0,0.1,0c0,0,0,0,0.1,0c0,0,0,0,0,0
		c0,0,0,0,0.1,0c0,0,0.1,0,0.1,0l0.3,0l0.4,0l0.4,0l0.9,0c0.1,0,0.3,0,0.4,0c0.1,0,0.2,0,0.4,0c0.1,0,0.2,0,0.3,0.1
		c0.1,0,0.2,0.1,0.2,0.1c0.1,0.1,0.2,0.1,0.3,0.2c0.1,0.1,0.1,0.1,0.1,0.2c0,0,0,0.1,0,0.1c0,0,0,0.1,0,0.2c0,0.1,0,0.1,0,0.2
		c0,0.1,0,0.1,0,0.2c0,0.1,0,0.2,0,0.3c0,0.1-0.1,0.2-0.1,0.3c-0.1,0.1-0.1,0.2-0.2,0.2c-0.1,0.1-0.2,0.1-0.3,0.2
		c-0.1,0-0.1,0.1-0.2,0.1c-0.1,0-0.2,0-0.3,0.1c-0.1,0-0.2,0-0.2,0c-0.1,0-0.1,0-0.2,0c0,0-0.1,0-0.1,0c0,0-0.1,0-0.1,0
		c0,0-0.1,0-0.1,0c-0.1,0-0.1,0-0.2,0c-0.1,0-0.2,0-0.2,0c-0.1,0-0.1,0-0.2,0H156c-0.1,0-0.1,0-0.2,0c-0.1,0-0.2,0-0.3,0
		c-0.1,0-0.2,0-0.2,0c-0.1,0-0.1,0-0.1,0c-0.1,0-0.1,0-0.2,0c-0.1,0-0.1,0-0.2,0c-0.1,0-0.1,0-0.2,0c-0.1,0-0.1,0-0.2,0
		c-0.1,0-0.2,0-0.3-0.1c-0.1,0-0.2-0.1-0.3-0.1c-0.1,0-0.1-0.1-0.2-0.1c-0.1,0-0.1-0.1-0.2-0.2c0-0.1-0.1-0.1-0.1-0.2
		c0-0.1,0-0.1,0-0.2c0,0,0-0.1,0-0.1c0,0,0-0.1,0-0.1c0-0.1,0-0.1,0-0.1c0,0,0-0.1,0-0.1h1.3c0,0,0,0,0,0c0,0,0,0,0,0c0,0,0,0,0,0
		c0,0,0,0,0,0c0,0,0,0.1,0,0.1c0,0,0,0.1,0,0.1c0,0,0,0,0,0.1c0,0,0,0.1,0,0.1c0,0,0,0.1,0.1,0.1c0,0,0.1,0.1,0.1,0.1
		c0,0,0.1,0,0.2,0.1c0.1,0,0.1,0,0.2,0c0.1,0,0.1,0,0.2,0c0,0,0.1,0,0.1,0c0,0,0.1,0,0.2,0c0.1,0,0.1,0,0.2,0c0.1,0,0.1,0,0.2,0
		c0,0,0.1,0,0.1,0c0.1,0,0.2,0,0.2,0c0.1,0,0.1,0,0.2,0c0.1,0,0.2,0,0.3,0c0.2,0,0.3,0,0.4-0.1c0.1,0,0.1-0.1,0.2-0.1
		c0,0,0.1-0.1,0.1-0.1c0,0,0-0.1,0-0.2c0-0.1,0-0.1,0-0.2c0,0,0-0.1,0-0.1c0,0,0-0.1,0-0.1c0,0,0-0.1-0.1-0.1c0,0-0.1-0.1-0.1-0.1
		c0,0-0.1,0-0.1,0c0,0-0.1,0-0.1,0c0,0-0.1,0-0.1,0c0,0-0.1,0-0.1,0l-0.3,0l-0.4,0l-0.6,0c-0.1,0-0.1,0-0.2,0c-0.1,0-0.1,0-0.2,0
		c0,0-0.1,0-0.2,0c-0.1,0-0.1,0-0.2,0c-0.1,0-0.2,0-0.3,0c-0.1,0-0.2,0-0.3,0c-0.1,0-0.2,0-0.3-0.1c-0.1,0-0.2-0.1-0.2-0.1
		c-0.1,0-0.2-0.1-0.2-0.2c-0.1-0.1-0.1-0.1-0.2-0.2c0-0.1-0.1-0.2-0.1-0.3c0,0,0-0.1,0-0.1c0,0,0-0.1,0-0.1c0-0.2,0-0.4,0.1-0.6
		c0.1-0.2,0.2-0.3,0.4-0.4c0.2-0.1,0.4-0.2,0.8-0.2C155.2,48.9,155.7,48.9,156.2,48.9"/>
	<polygon class="st6" points="163,53.2 163,49.6 161,49.6 161,48.9 166.4,48.9 166.4,49.6 164.3,49.6 164.3,53.2 	"/>
	<polygon class="st6" points="168.4,53.2 168.4,48.9 173.2,48.9 173.2,49.6 169.7,49.6 169.7,50.7 173,50.7 173,51.4 169.7,51.4 
		169.7,52.5 173.2,52.5 173.2,53.2 	"/>
	<polygon class="st6" points="175.7,53.2 175.7,48.9 177.9,48.9 179.8,52.1 179.8,52.1 181.7,48.9 183.9,48.9 183.9,53.2 
		182.5,53.2 182.6,49.6 182.6,49.6 180.4,53.2 179.2,53.2 177,49.6 177,49.6 177,51.2 177.1,53.2 	"/>
	<polygon class="st6" points="186.6,48.9 187.9,48.9 187.9,52.5 191.2,52.5 191.2,53.2 186.6,53.2 	"/>
	<polygon class="st6" points="193.2,53.2 193.2,48.9 198,48.9 198,49.6 194.5,49.6 194.5,50.7 197.8,50.7 197.8,51.4 194.5,51.4 
		194.5,52.5 198,52.5 198,53.2 	"/>
	<path class="st6" d="M203.9,48.9c0.4,0,0.8,0,1.1,0.1c0.3,0.1,0.5,0.1,0.7,0.2c0.1,0.1,0.2,0.2,0.3,0.4c0.1,0.2,0.1,0.4,0.1,0.6
		c0,0.2,0,0.4-0.1,0.6c0,0.1,0,0.2-0.1,0.2c0,0.1-0.1,0.1-0.2,0.2c-0.1,0.1-0.2,0.1-0.4,0.2c-0.2,0-0.3,0.1-0.6,0.1v0
		c0.2,0,0.4,0,0.5,0.1c0.2,0,0.3,0.1,0.4,0.2c0,0,0.1,0.1,0.1,0.1c0,0.1,0.1,0.1,0.1,0.2c0,0,0,0.1,0,0.1c0,0,0,0.1,0,0.1
		c0,0,0,0.1,0,0.1c0,0,0,0.1,0,0.1v0.8h-1.3v-0.6c0-0.2,0-0.3,0-0.4c0,0,0-0.1-0.1-0.1c0,0-0.1-0.1-0.1-0.1c0,0-0.1-0.1-0.2-0.1
		c-0.1,0-0.1,0-0.2-0.1c0,0-0.1,0-0.1,0c0,0-0.1,0-0.1,0c0,0-0.1,0-0.1,0c-0.1,0-0.1,0-0.2,0h-0.1h-1.7v1.4h-1.3v-4.3H203.9z
		 M203.7,49.6h-1.9v1.5h1.9c0.2,0,0.4,0,0.5,0c0.1,0,0.1,0,0.2-0.1c0.1,0,0.1,0,0.2-0.1c0,0,0.1-0.1,0.1-0.1c0,0,0-0.1,0.1-0.1
		c0-0.1,0-0.1,0-0.2c0-0.1,0-0.1,0-0.2c0-0.1,0-0.1,0-0.2c0-0.1,0-0.1,0-0.1c0,0,0-0.1,0-0.1c0,0,0-0.1-0.1-0.1c0,0-0.1-0.1-0.1-0.1
		c-0.1,0-0.1,0-0.2,0c0,0-0.1,0-0.1,0c0,0-0.1,0-0.1,0c-0.1,0-0.1,0-0.2,0C203.8,49.6,203.8,49.6,203.7,49.6z"/>
	<path class="st6" d="M208.9,47.9h0.9v0.5h-0.9V47.9z M208.7,48.9h1.3v4.3h-1.3V48.9z"/>
</g>
</svg>
